<?xml version="1.0" encoding="UTF-8" standalone="no"?>
<svg
   xmlns:dc="http://purl.org/dc/elements/1.1/"
   xmlns:cc="http://creativecommons.org/ns#"
   xmlns:rdf="http://www.w3.org/1999/02/22-rdf-syntax-ns#"
   xmlns:svg="http://www.w3.org/2000/svg"
   xmlns="http://www.w3.org/2000/svg"
   xmlns:sodipodi="http://sodipodi.sourceforge.net/DTD/sodipodi-0.dtd"
   xmlns:inkscape="http://www.inkscape.org/namespaces/inkscape"
   viewBox="0 0 648.00 252.00"
   version="1.1"
   id="svg604"
   sodipodi:docname="controlPrimers.svg"
   inkscape:version="0.92.4 (5da689c313, 2019-01-14)"
   inkscape:export-filename="C:\Users\User\Desktop\welly-trevally\imagesFinal\popGenetics\controlPrimers.png"
   inkscape:export-xdpi="591.7157"
   inkscape:export-ydpi="591.7157">
  <metadata
     id="metadata608">
    <rdf:RDF>
      <cc:Work
         rdf:about="">
        <dc:format>image/svg+xml</dc:format>
        <dc:type
           rdf:resource="http://purl.org/dc/dcmitype/StillImage" />
      </cc:Work>
    </rdf:RDF>
  </metadata>
  <sodipodi:namedview
     pagecolor="#ffffff"
     bordercolor="#666666"
     borderopacity="1"
     objecttolerance="10"
     gridtolerance="10"
     guidetolerance="10"
     inkscape:pageopacity="0"
     inkscape:pageshadow="2"
     inkscape:window-width="1920"
     inkscape:window-height="1001"
     id="namedview606"
     showgrid="false"
     inkscape:zoom="2.0925926"
     inkscape:cx="361.1798"
     inkscape:cy="185.62795"
     inkscape:window-x="-9"
     inkscape:window-y="-9"
     inkscape:window-maximized="1"
     inkscape:current-layer="svg604" />
  <defs
     id="defs402">
    <style
       type="text/css"
       id="style400"><![CDATA[
    line, polyline, polygon, path, rect, circle {
      fill: none;
      stroke: #000000;
      stroke-linecap: round;
      stroke-linejoin: round;
      stroke-miterlimit: 10.00;
    }
  ]]></style>
  </defs>
  <rect
     width="100%"
     height="100%"
     style="stroke: none; fill: #FFFFFF;"
     id="rect404" />
  <rect
     x="0.0058656354"
     y="0.0058656354"
     width="647.98828"
     height="256.71899"
     style="fill:#ffffff;stroke:#010000;stroke-width:0.972;stroke-linecap:round;stroke-linejoin:round;stroke-miterlimit:10;stroke-dasharray:none;stroke-opacity:1"
     id="rect406" />
  <defs
     id="defs411">
    <clipPath
       id="cpNDIuOTZ8NjQxLjUyfDIxNy4wMXw2LjQ4">
      <rect
         x="42.96"
         y="6.48"
         width="598.56"
         height="210.53"
         id="rect408" />
    </clipPath>
  </defs>
  <polyline
     points="42.96,111.74 641.52,111.74 "
     style="stroke-width: 1.26; stroke: #BEBEBE; stroke-dasharray: 1.68,5.04; stroke-linecap: butt;"
     clip-path="url(#cpNDIuOTZ8NjQxLjUyfDIxNy4wMXw2LjQ4)"
     id="polyline419" />
  <polyline
     points="42.96,79.84 641.52,79.84 "
     style="stroke-width: 1.26; stroke: #BEBEBE; stroke-dasharray: 1.68,5.04; stroke-linecap: butt;"
     clip-path="url(#cpNDIuOTZ8NjQxLjUyfDIxNy4wMXw2LjQ4)"
     id="polyline421" />
  <polyline
     points="42.96,47.94 641.52,47.94 "
     style="stroke-width: 1.26; stroke: #BEBEBE; stroke-dasharray: 1.68,5.04; stroke-linecap: butt;"
     clip-path="url(#cpNDIuOTZ8NjQxLjUyfDIxNy4wMXw2LjQ4)"
     id="polyline423" />
  <polyline
     points="42.96,16.05 641.52,16.05 "
     style="stroke-width: 1.26; stroke: #BEBEBE; stroke-dasharray: 1.68,5.04; stroke-linecap: butt;"
     clip-path="url(#cpNDIuOTZ8NjQxLjUyfDIxNy4wMXw2LjQ4)"
     id="polyline425" />
  <polygon
     points="70.17,111.74 70.69,111.74 71.21,111.74 71.72,111.74 72.24,111.74 72.76,111.74 73.28,111.74 73.80,111.74 74.32,111.74 74.83,111.74 75.35,111.74 75.87,111.74 76.39,111.74 76.91,111.74 77.42,111.74 77.94,111.74 78.46,111.74 78.98,111.74 79.50,111.74 80.02,111.74 80.53,111.74 81.05,111.74 81.57,111.74 82.09,111.74 82.61,111.74 83.13,111.74 83.64,111.74 84.16,111.74 84.68,111.74 85.20,111.74 85.72,111.74 86.23,111.74 86.75,111.74 87.27,111.74 87.79,111.74 88.31,111.74 88.83,111.74 89.34,111.74 89.86,111.74 90.38,111.74 90.90,111.74 91.42,111.74 91.94,111.74 92.45,111.74 92.97,111.74 93.49,111.74 94.01,111.74 94.53,111.74 95.04,111.74 95.56,111.74 96.08,111.74 96.60,111.74 97.12,111.74 97.64,111.74 98.15,111.74 98.67,111.74 99.19,111.74 99.71,111.74 100.23,111.74 100.75,111.74 101.26,111.74 101.78,111.74 102.30,111.74 102.82,111.74 103.34,111.74 103.85,111.74 104.37,111.74 104.89,111.74 105.41,111.74 105.93,111.74 106.45,111.74 106.96,111.74 107.48,111.74 108.00,111.74 108.52,111.74 109.04,111.74 109.56,111.74 110.07,111.74 110.59,111.74 111.11,111.74 111.63,111.74 112.15,111.74 112.66,111.74 113.18,111.74 113.70,111.74 114.22,111.74 114.74,111.74 115.26,111.74 115.77,111.74 116.29,111.74 116.81,111.74 117.33,111.74 117.85,111.74 118.37,111.74 118.88,111.74 119.40,111.74 119.92,111.74 120.44,111.74 120.96,111.74 121.47,111.74 121.99,111.74 122.51,111.74 123.03,111.74 123.55,111.74 124.07,111.74 124.58,111.74 125.10,111.74 125.62,111.74 126.14,111.74 126.66,111.74 127.18,111.74 127.69,111.74 128.21,111.74 128.73,111.74 129.25,111.74 129.77,111.74 130.28,111.74 130.80,111.74 131.32,111.74 131.84,111.74 132.36,111.74 132.88,111.74 133.39,111.74 133.91,111.74 134.43,111.74 134.95,111.74 135.47,111.74 135.99,111.74 136.50,111.74 137.02,111.74 137.54,111.74 138.06,111.74 138.58,111.74 139.09,111.74 139.61,111.74 140.13,111.74 140.65,111.74 141.17,111.74 141.69,111.74 142.20,111.74 142.72,111.74 143.24,111.74 143.76,111.74 144.28,111.74 144.80,111.74 145.31,111.74 145.83,111.74 146.35,111.74 146.87,111.74 147.39,111.74 147.90,111.74 148.42,111.74 148.94,111.74 149.46,25.86 149.98,25.86 150.50,111.74 151.01,111.74 151.53,66.76 152.05,111.74 152.57,111.74 153.09,111.74 478.54,111.74 479.06,111.74 479.58,87.20 480.09,111.74 480.61,111.74 481.13,111.74 481.65,111.74 482.17,111.74 482.69,111.74 483.20,87.20 483.72,87.20 484.24,66.76 484.76,87.20 485.28,87.20 485.79,111.74 486.31,87.20 486.83,111.74 487.35,87.20 487.87,111.74 488.39,111.74 488.90,111.74 489.42,111.74 489.94,111.74 490.46,38.13 490.98,111.74 491.50,111.74 492.01,111.74 492.53,87.20 493.05,111.74 493.57,66.76 494.09,87.20 494.60,29.95 495.12,50.40 495.64,111.74 496.16,111.74 496.68,111.74 497.20,111.74 497.71,111.74 498.23,38.13 498.75,87.20 499.27,111.74 499.79,111.74 500.31,111.74 500.82,111.74 501.34,87.20 501.86,111.74 502.38,111.74 502.90,111.74 503.41,111.74 503.93,111.74 504.45,111.74 504.97,111.74 505.49,111.74 506.01,111.74 506.52,111.74 507.04,111.74 507.56,111.74 508.08,111.74 508.60,111.74 509.12,87.20 509.63,87.20 510.15,111.74 510.67,111.74 511.19,111.74 511.71,111.74 512.22,111.74 512.74,111.74 513.26,111.74 513.78,66.76 514.30,87.20 514.82,29.95 515.33,111.74 515.85,111.74 516.37,111.74 516.89,111.74 517.41,111.74 517.93,111.74 518.44,111.74 518.96,111.74 519.48,111.74 520.00,111.74 520.52,111.74 521.03,111.74 521.55,111.74 522.07,111.74 522.59,111.74 523.11,111.74 523.63,111.74 524.14,111.74 524.66,111.74 525.18,111.74 525.70,111.74 526.22,111.74 526.74,111.74 527.25,111.74 527.77,111.74 528.29,111.74 528.81,111.74 529.33,111.74 529.84,111.74 530.36,111.74 530.88,87.20 531.40,111.74 531.92,111.74 532.44,111.74 532.95,111.74 533.47,111.74 533.99,111.74 534.51,111.74 535.03,111.74 535.55,111.74 536.06,111.74 536.58,111.74 537.10,111.74 537.62,111.74 538.14,111.74 538.65,111.74 539.17,111.74 539.69,111.74 540.21,111.74 541.76,111.74 542.28,111.74 542.80,111.74 543.32,111.74 543.84,111.74 544.36,111.74 544.87,111.74 545.39,17.92 545.91,111.74 546.43,111.74 546.95,111.74 547.46,111.74 547.98,111.74 548.50,111.74 549.02,111.74 549.54,111.74 550.06,111.74 550.57,111.74 551.09,111.74 551.61,111.74 552.13,111.74 552.65,111.74 553.17,111.74 553.68,111.74 554.20,111.74 554.72,111.74 555.24,111.74 555.76,111.74 556.27,111.74 556.79,111.74 557.31,111.74 557.83,111.74 558.35,111.74 558.87,111.74 559.38,111.74 559.90,111.74 560.42,111.74 560.94,111.74 561.46,111.74 561.98,111.74 562.49,111.74 563.01,111.74 563.53,111.74 564.05,87.20 564.57,111.74 565.08,111.74 565.60,111.74 566.12,111.74 566.64,111.74 567.16,111.74 567.68,111.74 568.19,111.74 568.71,111.74 569.23,111.74 569.75,111.74 570.27,111.74 570.79,111.74 571.30,111.74 571.82,111.74 572.34,111.74 572.86,111.74 573.38,111.74 573.89,111.74 574.41,111.74 574.93,111.74 575.45,111.74 575.97,111.74 576.49,111.74 577.00,111.74 577.52,111.74 578.04,111.74 578.56,111.74 579.08,111.74 579.60,111.74 580.11,111.74 580.63,111.74 581.15,111.74 581.67,111.74 582.19,111.74 582.70,111.74 583.22,111.74 583.74,111.74 584.26,111.74 584.78,111.74 585.30,111.74 585.81,111.74 586.33,111.74 586.85,111.74 587.37,111.74 587.89,111.74 588.41,111.74 588.92,111.74 589.44,111.74 589.96,111.74 590.48,111.74 591.00,111.74 591.51,111.74 592.03,111.74 592.55,111.74 593.07,111.74 593.59,111.74 594.11,111.74 594.62,111.74 595.14,111.74 595.66,111.74 596.18,111.74 596.70,111.74 597.22,111.74 597.73,111.74 598.25,87.20 598.77,111.74 599.29,111.74 599.81,111.74 600.32,111.74 600.84,111.74 601.36,111.74 601.88,111.74 602.40,111.74 602.92,111.74 603.43,111.74 603.95,111.74 604.47,111.74 604.99,111.74 605.51,111.74 606.03,111.74 606.54,111.74 607.06,111.74 607.58,111.74 608.10,111.74 608.62,111.74 609.13,111.74 609.65,111.74 610.17,111.74 610.69,111.74 611.21,111.74 611.73,111.74 611.73,111.74 611.21,111.74 610.69,111.74 610.17,111.74 609.65,111.74 609.13,111.74 608.62,111.74 608.10,111.74 607.58,111.74 607.06,111.74 606.54,111.74 606.03,111.74 605.51,111.74 604.99,111.74 604.47,111.74 603.95,111.74 603.43,111.74 602.92,111.74 602.40,111.74 601.88,111.74 601.36,111.74 600.84,111.74 600.32,111.74 599.81,111.74 599.29,111.74 598.77,111.74 598.25,111.74 597.73,111.74 597.22,111.74 596.70,111.74 596.18,111.74 595.66,111.74 595.14,111.74 594.62,111.74 594.11,111.74 593.59,111.74 593.07,111.74 592.55,111.74 592.03,111.74 591.51,111.74 591.00,111.74 590.48,111.74 589.96,111.74 589.44,111.74 588.92,111.74 588.41,111.74 587.89,111.74 587.37,111.74 586.85,111.74 586.33,111.74 585.81,111.74 585.30,111.74 584.78,111.74 584.26,111.74 583.74,111.74 583.22,111.74 582.70,111.74 582.19,111.74 581.67,111.74 581.15,111.74 580.63,111.74 580.11,111.74 579.60,111.74 579.08,111.74 578.56,111.74 578.04,111.74 577.52,111.74 577.00,111.74 576.49,111.74 575.97,111.74 575.45,111.74 574.93,111.74 574.41,111.74 573.89,111.74 573.38,111.74 572.86,111.74 572.34,111.74 571.82,111.74 571.30,111.74 570.79,111.74 570.27,111.74 569.75,111.74 569.23,111.74 568.71,111.74 568.19,111.74 567.68,111.74 567.16,111.74 566.64,111.74 566.12,111.74 565.60,111.74 565.08,111.74 564.57,111.74 564.05,111.74 563.53,111.74 563.01,111.74 562.49,111.74 561.98,111.74 561.46,111.74 560.94,111.74 560.42,111.74 559.90,111.74 559.38,111.74 558.87,111.74 558.35,111.74 557.83,111.74 557.31,111.74 556.79,111.74 556.27,111.74 555.76,111.74 555.24,111.74 554.72,111.74 554.20,111.74 553.68,111.74 553.17,111.74 552.65,111.74 552.13,111.74 551.61,111.74 551.09,111.74 550.57,111.74 550.06,111.74 549.54,111.74 549.02,111.74 548.50,111.74 547.98,111.74 547.46,111.74 546.95,111.74 546.43,111.74 545.91,111.74 545.39,111.74 544.87,111.74 544.36,111.74 543.84,111.74 543.32,111.74 542.80,111.74 542.28,111.74 541.76,111.74 540.21,111.74 539.69,111.74 539.17,111.74 538.65,111.74 538.14,111.74 537.62,111.74 537.10,111.74 536.58,111.74 536.06,111.74 535.55,111.74 535.03,111.74 534.51,111.74 533.99,111.74 533.47,111.74 532.95,111.74 532.44,111.74 531.92,111.74 531.40,111.74 530.88,111.74 530.36,111.74 529.84,111.74 529.33,111.74 528.81,111.74 528.29,111.74 527.77,111.74 527.25,111.74 526.74,111.74 526.22,111.74 525.70,111.74 525.18,111.74 524.66,111.74 524.14,111.74 523.63,111.74 523.11,111.74 522.59,111.74 522.07,111.74 521.55,111.74 521.03,111.74 520.52,111.74 520.00,111.74 519.48,111.74 518.96,111.74 518.44,111.74 517.93,111.74 517.41,111.74 516.89,111.74 516.37,111.74 515.85,111.74 515.33,111.74 514.82,111.74 514.30,111.74 513.78,111.74 513.26,111.74 512.74,111.74 512.22,111.74 511.71,111.74 511.19,111.74 510.67,111.74 510.15,111.74 509.63,111.74 509.12,111.74 508.60,111.74 508.08,111.74 507.56,111.74 507.04,111.74 506.52,111.74 506.01,111.74 505.49,111.74 504.97,111.74 504.45,111.74 503.93,111.74 503.41,111.74 502.90,111.74 502.38,111.74 501.86,111.74 501.34,111.74 500.82,111.74 500.31,111.74 499.79,111.74 499.27,111.74 498.75,111.74 498.23,111.74 497.71,111.74 497.20,111.74 496.68,111.74 496.16,111.74 495.64,111.74 495.12,111.74 494.60,111.74 494.09,111.74 493.57,111.74 493.05,111.74 492.53,111.74 492.01,111.74 491.50,111.74 490.98,111.74 490.46,111.74 489.94,111.74 489.42,111.74 488.90,111.74 488.39,111.74 487.87,111.74 487.35,111.74 486.83,111.74 486.31,111.74 485.79,111.74 485.28,111.74 484.76,111.74 484.24,111.74 483.72,111.74 483.20,111.74 482.69,111.74 482.17,111.74 481.65,111.74 481.13,111.74 480.61,111.74 480.09,111.74 479.58,111.74 479.06,111.74 478.54,111.74 153.09,111.74 152.57,111.74 152.05,111.74 151.53,111.74 151.01,111.74 150.50,111.74 149.98,111.74 149.46,111.74 148.94,111.74 148.42,111.74 147.90,111.74 147.39,111.74 146.87,111.74 146.35,111.74 145.83,111.74 145.31,111.74 144.80,111.74 144.28,111.74 143.76,111.74 143.24,111.74 142.72,111.74 142.20,111.74 141.69,111.74 141.17,111.74 140.65,111.74 140.13,111.74 139.61,111.74 139.09,111.74 138.58,111.74 138.06,111.74 137.54,111.74 137.02,111.74 136.50,111.74 135.99,111.74 135.47,111.74 134.95,111.74 134.43,111.74 133.91,111.74 133.39,111.74 132.88,111.74 132.36,111.74 131.84,111.74 131.32,111.74 130.80,111.74 130.28,111.74 129.77,111.74 129.25,111.74 128.73,111.74 128.21,111.74 127.69,111.74 127.18,111.74 126.66,111.74 126.14,111.74 125.62,111.74 125.10,111.74 124.58,111.74 124.07,111.74 123.55,111.74 123.03,111.74 122.51,111.74 121.99,111.74 121.47,111.74 120.96,111.74 120.44,111.74 119.92,111.74 119.40,111.74 118.88,111.74 118.37,111.74 117.85,111.74 117.33,111.74 116.81,111.74 116.29,111.74 115.77,111.74 115.26,111.74 114.74,111.74 114.22,111.74 113.70,111.74 113.18,111.74 112.66,111.74 112.15,111.74 111.63,111.74 111.11,111.74 110.59,111.74 110.07,111.74 109.56,111.74 109.04,111.74 108.52,111.74 108.00,111.74 107.48,111.74 106.96,111.74 106.45,111.74 105.93,111.74 105.41,111.74 104.89,111.74 104.37,111.74 103.85,111.74 103.34,111.74 102.82,111.74 102.30,111.74 101.78,111.74 101.26,111.74 100.75,111.74 100.23,111.74 99.71,111.74 99.19,111.74 98.67,111.74 98.15,111.74 97.64,111.74 97.12,111.74 96.60,111.74 96.08,111.74 95.56,111.74 95.04,111.74 94.53,111.74 94.01,111.74 93.49,111.74 92.97,111.74 92.45,111.74 91.94,111.74 91.42,111.74 90.90,111.74 90.38,111.74 89.86,111.74 89.34,111.74 88.83,111.74 88.31,111.74 87.79,111.74 87.27,111.74 86.75,111.74 86.23,111.74 85.72,111.74 85.20,111.74 84.68,111.74 84.16,111.74 83.64,111.74 83.13,111.74 82.61,111.74 82.09,111.74 81.57,111.74 81.05,111.74 80.53,111.74 80.02,111.74 79.50,111.74 78.98,111.74 78.46,111.74 77.94,111.74 77.42,111.74 76.91,111.74 76.39,111.74 75.87,111.74 75.35,111.74 74.83,111.74 74.32,111.74 73.80,111.74 73.28,111.74 72.76,111.74 72.24,111.74 71.72,111.74 71.21,111.74 70.69,111.74 70.17,111.74 "
     style="stroke-width:0;stroke:none;fill:#0000ff;stroke-miterlimit:10;stroke-dasharray:none"
     clip-path="url(#cpNDIuOTZ8NjQxLjUyfDIxNy4wMXw2LjQ4)"
     id="polygon427" />
  <polygon
     points="153.61,111.74 154.12,61.10 154.64,80.77 155.16,57.51 155.68,100.58 156.20,108.61 156.71,111.74 157.23,111.74 157.75,110.69 158.27,111.74 158.79,111.74 159.31,111.74 159.82,102.55 160.34,108.61 160.86,108.61 161.38,110.69 161.90,111.74 162.42,58.55 162.93,109.65 163.45,93.63 163.97,111.74 164.49,104.52 165.01,51.59 165.52,104.54 166.04,109.65 166.56,88.47 167.08,111.74 167.60,111.74 168.12,109.65 168.63,111.74 169.15,109.65 169.67,110.69 170.19,111.74 170.71,109.65 171.23,109.65 171.74,111.74 172.26,111.74 172.78,111.74 173.30,111.74 173.82,111.74 174.33,111.74 174.85,86.62 175.37,111.74 175.89,111.74 176.41,111.74 176.93,111.74 177.44,111.74 177.96,102.55 178.48,110.69 179.00,100.58 179.52,71.98 180.04,101.49 180.55,110.69 181.07,109.65 181.59,111.74 182.11,107.59 182.63,103.50 183.14,107.59 183.66,111.74 184.18,111.74 184.70,102.55 185.22,111.74 185.74,111.74 186.25,111.74 186.77,111.74 187.29,111.74 187.81,111.74 188.33,111.74 188.85,111.74 189.36,111.74 189.88,111.74 190.40,111.74 190.92,111.74 191.44,111.74 191.95,110.69 192.47,111.74 192.99,111.74 193.51,110.69 194.03,110.69 194.55,111.74 195.06,111.74 195.58,111.74 196.10,111.74 196.62,111.74 197.14,111.74 197.66,111.74 198.17,111.74 198.69,111.74 199.21,111.74 199.73,111.74 200.25,111.74 200.76,111.74 201.28,109.65 201.80,111.74 202.32,90.06 202.84,111.74 203.36,111.74 203.87,111.74 204.39,111.74 204.91,111.74 205.43,111.74 205.95,106.56 206.47,106.56 206.98,106.56 207.50,111.74 208.02,111.74 208.54,108.61 209.06,111.74 209.57,111.74 210.09,111.74 210.61,111.74 211.13,111.74 211.65,111.74 212.17,110.69 212.68,111.74 213.20,111.74 213.72,111.74 214.24,111.74 214.76,111.74 215.28,110.69 215.79,111.74 216.31,111.74 216.83,111.74 217.35,111.74 217.87,105.55 218.38,111.74 218.90,111.74 219.42,111.74 219.94,111.74 220.46,111.74 220.98,111.74 221.49,98.64 222.01,111.74 222.53,111.74 223.05,111.74 223.57,110.69 224.09,110.69 224.60,111.74 225.12,111.74 225.64,111.74 226.16,111.74 226.68,111.74 227.19,111.74 227.71,111.74 228.23,110.69 228.75,111.74 229.27,111.74 229.79,111.74 230.30,111.74 230.82,111.74 231.34,111.74 231.86,111.74 232.38,109.65 232.90,111.74 233.41,111.74 233.93,111.74 234.45,111.74 234.97,111.74 235.49,55.59 236.00,111.74 236.52,111.74 237.04,110.69 237.56,111.74 238.08,111.74 238.60,111.74 239.11,111.74 239.63,111.74 240.15,111.74 240.67,111.74 241.19,111.74 241.71,111.74 242.22,111.74 242.74,111.74 243.26,111.74 243.78,111.74 244.30,111.74 244.81,111.74 245.33,111.74 245.85,111.74 246.37,111.74 246.89,111.74 247.41,111.74 247.92,109.65 248.44,111.74 248.96,111.74 249.48,111.74 250.00,111.74 250.52,111.74 251.03,111.74 251.55,110.69 252.07,111.74 252.59,111.74 253.11,111.74 253.62,111.74 254.14,111.74 254.66,111.74 255.18,105.53 255.70,111.74 256.22,111.74 256.73,111.74 257.25,111.74 257.77,111.74 258.29,80.77 258.81,110.69 259.33,111.74 259.84,100.50 260.36,110.69 260.88,85.84 261.40,96.73 261.92,111.74 262.43,95.54 262.95,84.98 263.47,111.74 263.99,106.56 264.51,79.14 265.03,111.74 265.54,111.74 266.06,111.74 266.58,111.74 267.10,111.74 267.62,111.74 268.14,111.74 268.65,111.74 269.17,111.74 269.69,111.74 270.21,111.74 270.73,111.74 271.24,111.74 271.76,111.74 272.28,111.74 272.80,111.74 273.32,111.74 273.84,111.74 274.35,111.74 274.87,111.74 275.39,111.74 275.91,111.74 276.43,111.74 276.95,111.74 277.46,111.74 277.98,111.74 278.50,110.69 279.02,111.74 279.54,111.74 280.05,111.74 280.57,111.74 281.09,111.74 281.61,111.74 282.13,111.74 282.65,72.88 283.16,111.74 283.68,111.74 284.20,111.74 284.72,111.74 285.24,110.69 285.76,104.54 286.27,81.60 286.79,33.73 287.31,111.74 287.83,108.61 288.35,111.74 288.86,111.74 289.38,111.74 289.90,111.74 290.42,111.74 290.94,111.74 291.46,111.74 291.97,108.61 292.49,111.74 293.01,111.74 293.53,111.74 294.05,100.58 294.57,111.74 295.08,111.74 295.60,111.74 296.12,111.74 296.64,111.74 297.16,111.74 297.67,111.74 298.19,111.74 298.71,111.74 299.23,111.74 299.75,110.69 300.27,111.74 300.78,111.74 301.30,111.74 301.82,111.74 302.34,111.74 302.86,111.74 303.38,111.74 303.89,111.74 304.41,111.74 304.93,111.74 305.45,111.74 305.97,111.74 306.48,111.74 307.00,111.74 307.52,111.74 308.04,111.74 308.56,111.74 309.08,111.74 309.59,111.74 310.11,111.74 310.63,111.74 311.15,111.74 311.67,111.74 312.19,111.74 312.70,94.74 313.22,111.74 313.74,99.48 314.26,31.75 314.78,72.88 315.29,111.74 315.81,111.74 316.33,111.74 316.85,111.74 317.37,111.74 317.89,103.54 318.40,111.74 318.92,111.74 319.44,111.74 319.96,105.55 320.48,111.74 321.00,111.74 321.51,110.69 322.03,111.74 322.55,111.74 323.07,111.74 323.59,104.54 324.10,111.74 324.62,111.74 325.14,111.74 325.66,111.74 326.18,111.74 326.70,111.74 327.21,111.74 327.73,111.74 328.25,111.74 328.77,111.74 329.29,111.74 329.81,96.73 330.32,108.61 330.84,106.56 331.36,111.74 331.88,111.74 332.40,108.61 332.91,46.82 333.43,53.89 333.95,111.74 334.47,57.34 335.51,104.54 336.02,95.78 336.54,97.68 337.06,111.74 337.58,110.69 338.10,105.55 338.62,104.52 339.13,111.74 339.65,100.58 340.17,108.61 340.69,108.61 341.21,110.69 341.72,111.74 342.24,106.56 342.76,111.74 343.28,111.74 343.80,92.07 344.32,110.69 344.83,111.74 345.35,111.74 345.87,111.74 346.39,111.74 346.91,111.74 347.43,111.74 347.94,111.74 348.46,103.54 348.98,109.65 349.50,111.74 350.02,76.74 350.53,111.74 351.05,107.59 351.57,109.65 352.09,109.65 352.61,101.56 353.13,84.65 353.64,111.74 354.16,86.71 354.68,106.56 355.20,111.74 355.72,34.22 356.24,103.54 356.75,111.74 357.27,106.56 357.79,111.74 358.31,110.69 358.83,109.65 359.34,111.74 359.86,100.51 360.38,111.74 360.90,106.56 361.42,111.74 361.94,93.91 362.45,103.54 362.97,111.74 363.49,64.99 364.01,108.61 364.53,62.99 365.05,111.74 365.56,106.55 366.08,111.74 366.60,96.73 367.12,100.58 367.64,99.61 368.15,111.74 368.67,104.54 369.19,107.59 369.71,111.74 370.23,105.53 370.75,111.74 371.26,111.74 371.78,111.74 372.30,99.61 372.82,111.74 373.34,63.65 373.86,110.69 374.37,110.69 374.89,111.74 375.41,108.61 375.93,66.41 376.45,110.69 376.96,109.65 377.48,79.14 378.00,35.34 378.52,110.69 379.04,97.68 379.56,111.74 380.07,111.74 380.59,111.74 381.11,104.54 381.63,59.78 382.15,94.79 382.67,109.65 383.18,111.74 383.70,105.55 384.22,95.69 384.74,110.69 385.26,41.10 385.77,111.74 386.29,101.56 386.81,42.66 387.33,110.69 387.85,62.42 388.37,111.74 388.88,110.69 389.40,111.74 389.92,110.69 390.44,111.74 390.96,86.71 391.48,107.59 391.99,81.60 392.51,110.69 393.03,111.74 393.55,109.65 394.07,111.74 394.59,103.54 395.10,111.74 395.62,101.48 396.14,111.74 396.66,111.74 397.18,111.74 397.69,111.74 398.21,110.69 398.73,111.74 399.25,111.74 399.77,106.55 400.29,110.69 400.80,111.74 401.32,111.74 401.84,108.61 402.36,111.74 402.88,111.74 403.40,79.95 403.91,72.12 404.43,110.69 404.95,111.74 405.47,111.74 405.99,108.61 406.50,111.74 407.02,111.74 407.54,111.74 408.06,105.55 408.58,111.74 409.10,98.60 409.61,110.69 410.13,110.69 410.65,111.74 411.17,111.74 411.69,111.74 412.21,111.74 412.72,111.74 413.24,111.74 413.76,111.74 414.28,109.65 414.80,108.61 415.31,103.54 415.83,111.74 416.35,111.74 416.87,111.74 417.39,110.69 417.91,97.68 418.42,110.69 418.94,93.65 419.46,111.74 419.98,39.71 420.50,104.52 421.02,111.74 421.53,111.74 422.05,111.74 422.57,108.61 423.09,110.69 423.61,95.78 424.12,111.74 424.64,111.74 425.16,111.74 425.68,111.74 426.20,111.74 426.72,111.74 427.23,111.74 427.75,111.74 428.27,111.74 428.79,111.74 429.31,110.69 429.83,111.74 430.34,111.74 430.86,111.74 431.38,111.74 431.90,111.74 432.42,106.56 432.93,108.61 433.45,111.74 433.97,92.99 434.49,76.74 435.01,106.55 435.53,107.58 436.04,111.74 436.56,111.74 437.08,111.74 437.60,109.65 438.12,107.58 438.64,111.74 439.15,83.28 439.67,92.07 440.19,56.17 440.71,110.69 441.23,110.69 441.74,110.69 442.26,110.69 442.78,101.56 443.30,102.52 443.82,108.61 444.34,108.61 444.85,109.65 445.37,109.65 445.89,111.74 446.41,111.74 446.93,111.74 447.45,91.94 447.96,105.55 448.48,58.55 449.00,109.65 449.52,109.65 450.04,111.74 450.55,111.74 451.07,111.74 451.59,111.74 452.11,38.44 452.63,80.77 453.15,111.74 453.66,107.59 454.18,110.69 454.70,93.72 455.22,97.61 455.74,107.58 456.26,111.74 456.77,103.54 457.29,111.74 457.81,111.74 458.33,109.65 458.85,107.59 459.36,110.69 459.88,109.65 460.40,101.46 460.92,109.65 461.44,110.69 461.96,94.85 462.47,111.74 462.99,110.69 463.51,108.61 464.03,107.59 464.55,108.61 465.07,108.61 465.58,106.56 466.10,106.56 466.62,111.74 467.14,103.54 467.66,110.69 468.17,110.69 468.69,110.69 469.21,110.69 469.73,108.61 470.25,110.69 470.77,111.74 471.28,110.69 471.80,92.01 472.32,111.74 472.84,111.74 473.36,110.69 473.88,110.69 474.39,111.74 474.91,111.74 475.43,110.69 475.95,110.69 476.47,109.65 476.98,111.74 477.50,109.65 478.02,111.74 478.02,111.74 477.50,111.74 476.98,111.74 476.47,111.74 475.95,111.74 475.43,111.74 474.91,111.74 474.39,111.74 473.88,111.74 473.36,111.74 472.84,111.74 472.32,111.74 471.80,111.74 471.28,111.74 470.77,111.74 470.25,111.74 469.73,111.74 469.21,111.74 468.69,111.74 468.17,111.74 467.66,111.74 467.14,111.74 466.62,111.74 466.10,111.74 465.58,111.74 465.07,111.74 464.55,111.74 464.03,111.74 463.51,111.74 462.99,111.74 462.47,111.74 461.96,111.74 461.44,111.74 460.92,111.74 460.40,111.74 459.88,111.74 459.36,111.74 458.85,111.74 458.33,111.74 457.81,111.74 457.29,111.74 456.77,111.74 456.26,111.74 455.74,111.74 455.22,111.74 454.70,111.74 454.18,111.74 453.66,111.74 453.15,111.74 452.63,111.74 452.11,111.74 451.59,111.74 451.07,111.74 450.55,111.74 450.04,111.74 449.52,111.74 449.00,111.74 448.48,111.74 447.96,111.74 447.45,111.74 446.93,111.74 446.41,111.74 445.89,111.74 445.37,111.74 444.85,111.74 444.34,111.74 443.82,111.74 443.30,111.74 442.78,111.74 442.26,111.74 441.74,111.74 441.23,111.74 440.71,111.74 440.19,111.74 439.67,111.74 439.15,111.74 438.64,111.74 438.12,111.74 437.60,111.74 437.08,111.74 436.56,111.74 436.04,111.74 435.53,111.74 435.01,111.74 434.49,111.74 433.97,111.74 433.45,111.74 432.93,111.74 432.42,111.74 431.90,111.74 431.38,111.74 430.86,111.74 430.34,111.74 429.83,111.74 429.31,111.74 428.79,111.74 428.27,111.74 427.75,111.74 427.23,111.74 426.72,111.74 426.20,111.74 425.68,111.74 425.16,111.74 424.64,111.74 424.12,111.74 423.61,111.74 423.09,111.74 422.57,111.74 422.05,111.74 421.53,111.74 421.02,111.74 420.50,111.74 419.98,111.74 419.46,111.74 418.94,111.74 418.42,111.74 417.91,111.74 417.39,111.74 416.87,111.74 416.35,111.74 415.83,111.74 415.31,111.74 414.80,111.74 414.28,111.74 413.76,111.74 413.24,111.74 412.72,111.74 412.21,111.74 411.69,111.74 411.17,111.74 410.65,111.74 410.13,111.74 409.61,111.74 409.10,111.74 408.58,111.74 408.06,111.74 407.54,111.74 407.02,111.74 406.50,111.74 405.99,111.74 405.47,111.74 404.95,111.74 404.43,111.74 403.91,111.74 403.40,111.74 402.88,111.74 402.36,111.74 401.84,111.74 401.32,111.74 400.80,111.74 400.29,111.74 399.77,111.74 399.25,111.74 398.73,111.74 398.21,111.74 397.69,111.74 397.18,111.74 396.66,111.74 396.14,111.74 395.62,111.74 395.10,111.74 394.59,111.74 394.07,111.74 393.55,111.74 393.03,111.74 392.51,111.74 391.99,111.74 391.48,111.74 390.96,111.74 390.44,111.74 389.92,111.74 389.40,111.74 388.88,111.74 388.37,111.74 387.85,111.74 387.33,111.74 386.81,111.74 386.29,111.74 385.77,111.74 385.26,111.74 384.74,111.74 384.22,111.74 383.70,111.74 383.18,111.74 382.67,111.74 382.15,111.74 381.63,111.74 381.11,111.74 380.59,111.74 380.07,111.74 379.56,111.74 379.04,111.74 378.52,111.74 378.00,111.74 377.48,111.74 376.96,111.74 376.45,111.74 375.93,111.74 375.41,111.74 374.89,111.74 374.37,111.74 373.86,111.74 373.34,111.74 372.82,111.74 372.30,111.74 371.78,111.74 371.26,111.74 370.75,111.74 370.23,111.74 369.71,111.74 369.19,111.74 368.67,111.74 368.15,111.74 367.64,111.74 367.12,111.74 366.60,111.74 366.08,111.74 365.56,111.74 365.05,111.74 364.53,111.74 364.01,111.74 363.49,111.74 362.97,111.74 362.45,111.74 361.94,111.74 361.42,111.74 360.90,111.74 360.38,111.74 359.86,111.74 359.34,111.74 358.83,111.74 358.31,111.74 357.79,111.74 357.27,111.74 356.75,111.74 356.24,111.74 355.72,111.74 355.20,111.74 354.68,111.74 354.16,111.74 353.64,111.74 353.13,111.74 352.61,111.74 352.09,111.74 351.57,111.74 351.05,111.74 350.53,111.74 350.02,111.74 349.50,111.74 348.98,111.74 348.46,111.74 347.94,111.74 347.43,111.74 346.91,111.74 346.39,111.74 345.87,111.74 345.35,111.74 344.83,111.74 344.32,111.74 343.80,111.74 343.28,111.74 342.76,111.74 342.24,111.74 341.72,111.74 341.21,111.74 340.69,111.74 340.17,111.74 339.65,111.74 339.13,111.74 338.62,111.74 338.10,111.74 337.58,111.74 337.06,111.74 336.54,111.74 336.02,111.74 335.51,111.74 334.47,111.74 333.95,111.74 333.43,111.74 332.91,111.74 332.40,111.74 331.88,111.74 331.36,111.74 330.84,111.74 330.32,111.74 329.81,111.74 329.29,111.74 328.77,111.74 328.25,111.74 327.73,111.74 327.21,111.74 326.70,111.74 326.18,111.74 325.66,111.74 325.14,111.74 324.62,111.74 324.10,111.74 323.59,111.74 323.07,111.74 322.55,111.74 322.03,111.74 321.51,111.74 321.00,111.74 320.48,111.74 319.96,111.74 319.44,111.74 318.92,111.74 318.40,111.74 317.89,111.74 317.37,111.74 316.85,111.74 316.33,111.74 315.81,111.74 315.29,111.74 314.78,111.74 314.26,111.74 313.74,111.74 313.22,111.74 312.70,111.74 312.19,111.74 311.67,111.74 311.15,111.74 310.63,111.74 310.11,111.74 309.59,111.74 309.08,111.74 308.56,111.74 308.04,111.74 307.52,111.74 307.00,111.74 306.48,111.74 305.97,111.74 305.45,111.74 304.93,111.74 304.41,111.74 303.89,111.74 303.38,111.74 302.86,111.74 302.34,111.74 301.82,111.74 301.30,111.74 300.78,111.74 300.27,111.74 299.75,111.74 299.23,111.74 298.71,111.74 298.19,111.74 297.67,111.74 297.16,111.74 296.64,111.74 296.12,111.74 295.60,111.74 295.08,111.74 294.57,111.74 294.05,111.74 293.53,111.74 293.01,111.74 292.49,111.74 291.97,111.74 291.46,111.74 290.94,111.74 290.42,111.74 289.90,111.74 289.38,111.74 288.86,111.74 288.35,111.74 287.83,111.74 287.31,111.74 286.79,111.74 286.27,111.74 285.76,111.74 285.24,111.74 284.72,111.74 284.20,111.74 283.68,111.74 283.16,111.74 282.65,111.74 282.13,111.74 281.61,111.74 281.09,111.74 280.57,111.74 280.05,111.74 279.54,111.74 279.02,111.74 278.50,111.74 277.98,111.74 277.46,111.74 276.95,111.74 276.43,111.74 275.91,111.74 275.39,111.74 274.87,111.74 274.35,111.74 273.84,111.74 273.32,111.74 272.80,111.74 272.28,111.74 271.76,111.74 271.24,111.74 270.73,111.74 270.21,111.74 269.69,111.74 269.17,111.74 268.65,111.74 268.14,111.74 267.62,111.74 267.10,111.74 266.58,111.74 266.06,111.74 265.54,111.74 265.03,111.74 264.51,111.74 263.99,111.74 263.47,111.74 262.95,111.74 262.43,111.74 261.92,111.74 261.40,111.74 260.88,111.74 260.36,111.74 259.84,111.74 259.33,111.74 258.81,111.74 258.29,111.74 257.77,111.74 257.25,111.74 256.73,111.74 256.22,111.74 255.70,111.74 255.18,111.74 254.66,111.74 254.14,111.74 253.62,111.74 253.11,111.74 252.59,111.74 252.07,111.74 251.55,111.74 251.03,111.74 250.52,111.74 250.00,111.74 249.48,111.74 248.96,111.74 248.44,111.74 247.92,111.74 247.41,111.74 246.89,111.74 246.37,111.74 245.85,111.74 245.33,111.74 244.81,111.74 244.30,111.74 243.78,111.74 243.26,111.74 242.74,111.74 242.22,111.74 241.71,111.74 241.19,111.74 240.67,111.74 240.15,111.74 239.63,111.74 239.11,111.74 238.60,111.74 238.08,111.74 237.56,111.74 237.04,111.74 236.52,111.74 236.00,111.74 235.49,111.74 234.97,111.74 234.45,111.74 233.93,111.74 233.41,111.74 232.90,111.74 232.38,111.74 231.86,111.74 231.34,111.74 230.82,111.74 230.30,111.74 229.79,111.74 229.27,111.74 228.75,111.74 228.23,111.74 227.71,111.74 227.19,111.74 226.68,111.74 226.16,111.74 225.64,111.74 225.12,111.74 224.60,111.74 224.09,111.74 223.57,111.74 223.05,111.74 222.53,111.74 222.01,111.74 221.49,111.74 220.98,111.74 220.46,111.74 219.94,111.74 219.42,111.74 218.90,111.74 218.38,111.74 217.87,111.74 217.35,111.74 216.83,111.74 216.31,111.74 215.79,111.74 215.28,111.74 214.76,111.74 214.24,111.74 213.72,111.74 213.20,111.74 212.68,111.74 212.17,111.74 211.65,111.74 211.13,111.74 210.61,111.74 210.09,111.74 209.57,111.74 209.06,111.74 208.54,111.74 208.02,111.74 207.50,111.74 206.98,111.74 206.47,111.74 205.95,111.74 205.43,111.74 204.91,111.74 204.39,111.74 203.87,111.74 203.36,111.74 202.84,111.74 202.32,111.74 201.80,111.74 201.28,111.74 200.76,111.74 200.25,111.74 199.73,111.74 199.21,111.74 198.69,111.74 198.17,111.74 197.66,111.74 197.14,111.74 196.62,111.74 196.10,111.74 195.58,111.74 195.06,111.74 194.55,111.74 194.03,111.74 193.51,111.74 192.99,111.74 192.47,111.74 191.95,111.74 191.44,111.74 190.92,111.74 190.40,111.74 189.88,111.74 189.36,111.74 188.85,111.74 188.33,111.74 187.81,111.74 187.29,111.74 186.77,111.74 186.25,111.74 185.74,111.74 185.22,111.74 184.70,111.74 184.18,111.74 183.66,111.74 183.14,111.74 182.63,111.74 182.11,111.74 181.59,111.74 181.07,111.74 180.55,111.74 180.04,111.74 179.52,111.74 179.00,111.74 178.48,111.74 177.96,111.74 177.44,111.74 176.93,111.74 176.41,111.74 175.89,111.74 175.37,111.74 174.85,111.74 174.33,111.74 173.82,111.74 173.30,111.74 172.78,111.74 172.26,111.74 171.74,111.74 171.23,111.74 170.71,111.74 170.19,111.74 169.67,111.74 169.15,111.74 168.63,111.74 168.12,111.74 167.60,111.74 167.08,111.74 166.56,111.74 166.04,111.74 165.52,111.74 165.01,111.74 164.49,111.74 163.97,111.74 163.45,111.74 162.93,111.74 162.42,111.74 161.90,111.74 161.38,111.74 160.86,111.74 160.34,111.74 159.82,111.74 159.31,111.74 158.79,111.74 158.27,111.74 157.75,111.74 157.23,111.74 156.71,111.74 156.20,111.74 155.68,111.74 155.16,111.74 154.64,111.74 154.12,111.74 153.61,111.74 "
     style="stroke-width:0.1;stroke:none;fill:#000000;fill-opacity:1;stroke-miterlimit:10;stroke-dasharray:none;stroke-opacity:1"
     clip-path="url(#cpNDIuOTZ8NjQxLjUyfDIxNy4wMXw2LjQ4)"
     id="polygon429" />
  <rect
     x="104.89"
     y="114.93"
     width="11.40"
     height="9.57"
     style="stroke-width: 1.07; stroke-linecap: square; stroke-linejoin: miter; fill: #FFFF00; fill-opacity: 0.80;"
     clip-path="url(#cpNDIuOTZ8NjQxLjUyfDIxNy4wMXw2LjQ4)"
     id="rect431" />
  <rect
     x="108.00"
     y="127.69"
     width="36.28"
     height="9.57"
     style="stroke-width: 1.07; stroke-linecap: square; stroke-linejoin: miter; fill: #FF1493; fill-opacity: 0.80;"
     clip-path="url(#cpNDIuOTZ8NjQxLjUyfDIxNy4wMXw2LjQ4)"
     id="rect433" />
  <rect
     x="71.21"
     y="127.69"
     width="36.79"
     height="9.57"
     style="stroke-width: 1.07; stroke-linecap: square; stroke-linejoin: miter; fill: #FF1493; fill-opacity: 0.80;"
     clip-path="url(#cpNDIuOTZ8NjQxLjUyfDIxNy4wMXw2LjQ4)"
     id="rect435" />
  <rect
     x="144.80"
     y="127.69"
     width="458.12"
     height="9.57"
     style="stroke-width: 1.07; stroke-linecap: square; stroke-linejoin: miter; fill: #FFB90F; fill-opacity: 0.80;"
     clip-path="url(#cpNDIuOTZ8NjQxLjUyfDIxNy4wMXw2LjQ4)"
     id="rect437" />
  <rect
     x="543.32"
     y="140.45"
     width="11.40"
     height="9.57"
     style="stroke-width: 1.07; stroke-linecap: square; stroke-linejoin: miter; fill: #FFFF00; fill-opacity: 0.80;"
     clip-path="url(#cpNDIuOTZ8NjQxLjUyfDIxNy4wMXw2LjQ4)"
     id="rect439" />
  <rect
     x="153.61"
     y="140.45"
     width="324.93"
     height="9.57"
     style="stroke-width: 1.07; stroke: #FF0000; stroke-linecap: square; stroke-linejoin: miter; fill: #FF0000; fill-opacity: 0.80;"
     clip-path="url(#cpNDIuOTZ8NjQxLjUyfDIxNy4wMXw2LjQ4)"
     id="rect441" />
  <rect
     x="145.83"
     y="153.21"
     width="303.17"
     height="9.57"
     style="stroke-width: 1.07; stroke: #FF0000; stroke-linecap: square; stroke-linejoin: miter; fill: #FF0000; fill-opacity: 0.80;"
     clip-path="url(#cpNDIuOTZ8NjQxLjUyfDIxNy4wMXw2LjQ4)"
     id="rect443" />
  <line
     x1="111.63"
     y1="119.72"
     x2="153.09"
     y2="119.72"
     style="stroke-width: 1.49; stroke: #363636; stroke-linecap: butt;"
     clip-path="url(#cpNDIuOTZ8NjQxLjUyfDIxNy4wMXw2LjQ4)"
     id="line465" />
  <polygon
     points="149.40,121.84 153.09,119.72 149.40,117.59 "
     style="stroke-width: 1.49; stroke: #363636; stroke-linecap: butt; fill: #363636;"
     clip-path="url(#cpNDIuOTZ8NjQxLjUyfDIxNy4wMXw2LjQ4)"
     id="polygon467" />
  <line
     x1="549.54"
     y1="145.23"
     x2="505.49"
     y2="145.23"
     style="stroke-width: 1.49; stroke: #363636; stroke-linecap: butt;"
     clip-path="url(#cpNDIuOTZ8NjQxLjUyfDIxNy4wMXw2LjQ4)"
     id="line469" />
  <polygon
     points="509.17,143.11 505.49,145.23 509.17,147.36 "
     style="stroke-width: 1.49; stroke: #363636; stroke-linecap: butt; fill: #363636;"
     clip-path="url(#cpNDIuOTZ8NjQxLjUyfDIxNy4wMXw2LjQ4)"
     id="polygon471" />
  <defs
     id="defs476">
    <clipPath
       id="cpMC4wMHw2NDguMDB8MjUyLjAwfDAuMDA=">
      <rect
         x="0.00"
         y="0.00"
         width="648.00"
         height="252.00"
         id="rect473" />
    </clipPath>
  </defs>
  <polyline
     points="42.96,217.01 42.96,6.48 "
     style="fill:none;stroke:#000000;stroke-width:1.07000005;stroke-linecap:round;stroke-linejoin:round;stroke-miterlimit:10"
     clip-path="url(#cpMC4wMHw2NDguMDB8MjUyLjAwfDAuMDA=)"
     id="polyline478"
     transform="matrix(1,0,0,1.0184107,0,-0.11930101)" />
  <g
     clip-path="url(#cpMC4wMHw2NDguMDB8MjUyLjAwfDAuMDA=)"
     id="g494">
    <text
       x="23.23"
       y="115.32"
       style="font-size: 10.00px; font-family: Arial;"
       textLength="13.90px"
       lengthAdjust="spacingAndGlyphs"
       id="text492">0.0</text>
  </g>
  <g
     clip-path="url(#cpMC4wMHw2NDguMDB8MjUyLjAwfDAuMDA=)"
     id="g498">
    <text
       x="23.23"
       y="83.42"
       style="font-size: 10.00px; font-family: Arial;"
       textLength="13.90px"
       lengthAdjust="spacingAndGlyphs"
       id="text496">0.2</text>
  </g>
  <g
     clip-path="url(#cpMC4wMHw2NDguMDB8MjUyLjAwfDAuMDA=)"
     id="g502">
    <text
       x="23.23"
       y="51.52"
       style="font-size: 10.00px; font-family: Arial;"
       textLength="13.90px"
       lengthAdjust="spacingAndGlyphs"
       id="text500">0.4</text>
  </g>
  <g
     clip-path="url(#cpMC4wMHw2NDguMDB8MjUyLjAwfDAuMDA=)"
     id="g506">
    <text
       x="23.23"
       y="19.62"
       style="font-size: 10.00px; font-family: Arial;"
       textLength="13.90px"
       lengthAdjust="spacingAndGlyphs"
       id="text504">0.6</text>
  </g>
  <polyline
     points="39.72,111.74 42.96,111.74 "
     style="stroke-width: 1.26; stroke-linecap: butt;"
     clip-path="url(#cpMC4wMHw2NDguMDB8MjUyLjAwfDAuMDA=)"
     id="polyline514" />
  <polyline
     points="39.72,79.84 42.96,79.84 "
     style="stroke-width: 1.26; stroke-linecap: butt;"
     clip-path="url(#cpMC4wMHw2NDguMDB8MjUyLjAwfDAuMDA=)"
     id="polyline516" />
  <polyline
     points="39.72,47.94 42.96,47.94 "
     style="stroke-width: 1.26; stroke-linecap: butt;"
     clip-path="url(#cpMC4wMHw2NDguMDB8MjUyLjAwfDAuMDA=)"
     id="polyline518" />
  <polyline
     points="39.72,16.05 42.96,16.05 "
     style="stroke-width: 1.26; stroke-linecap: butt;"
     clip-path="url(#cpMC4wMHw2NDguMDB8MjUyLjAwfDAuMDA=)"
     id="polyline520" />
  <polyline
     points="42.96,217.01 641.52,217.01 "
     style="fill:none;stroke:#000000;stroke-width:1.07000005;stroke-linecap:round;stroke-linejoin:round;stroke-miterlimit:10"
     clip-path="url(#cpMC4wMHw2NDguMDB8MjUyLjAwfDAuMDA=)"
     id="polyline522"
     transform="translate(-0.3378899,4.3928172)" />
  <polyline
     points="44.26,220.24 44.26,217.01 "
     style="fill:none;stroke:#000000;stroke-width:1.25999999;stroke-linecap:butt;stroke-linejoin:round;stroke-miterlimit:10"
     clip-path="url(#cpMC4wMHw2NDguMDB8MjUyLjAwfDAuMDA=)"
     id="polyline524"
     transform="translate(-0.3378899,4.3928172)" />
  <polyline
     points="96.08,220.24 96.08,217.01 "
     style="fill:none;stroke:#000000;stroke-width:1.25999999;stroke-linecap:butt;stroke-linejoin:round;stroke-miterlimit:10"
     clip-path="url(#cpMC4wMHw2NDguMDB8MjUyLjAwfDAuMDA=)"
     id="polyline526"
     transform="translate(-0.3378899,4.3928172)" />
  <polyline
     points="147.90,220.24 147.90,217.01 "
     style="fill:none;stroke:#000000;stroke-width:1.25999999;stroke-linecap:butt;stroke-linejoin:round;stroke-miterlimit:10"
     clip-path="url(#cpMC4wMHw2NDguMDB8MjUyLjAwfDAuMDA=)"
     id="polyline528"
     transform="translate(-0.3378899,4.3928172)" />
  <polyline
     points="199.73,220.24 199.73,217.01 "
     style="fill:none;stroke:#000000;stroke-width:1.25999999;stroke-linecap:butt;stroke-linejoin:round;stroke-miterlimit:10"
     clip-path="url(#cpMC4wMHw2NDguMDB8MjUyLjAwfDAuMDA=)"
     id="polyline530"
     transform="translate(-0.3378899,4.3928172)" />
  <polyline
     points="251.55,220.24 251.55,217.01 "
     style="fill:none;stroke:#000000;stroke-width:1.25999999;stroke-linecap:butt;stroke-linejoin:round;stroke-miterlimit:10"
     clip-path="url(#cpMC4wMHw2NDguMDB8MjUyLjAwfDAuMDA=)"
     id="polyline532"
     transform="translate(-0.3378899,4.3928172)" />
  <polyline
     points="303.38,220.24 303.38,217.01 "
     style="fill:none;stroke:#000000;stroke-width:1.25999999;stroke-linecap:butt;stroke-linejoin:round;stroke-miterlimit:10"
     clip-path="url(#cpMC4wMHw2NDguMDB8MjUyLjAwfDAuMDA=)"
     id="polyline534"
     transform="translate(-0.3378899,4.3928172)" />
  <polyline
     points="355.20,220.24 355.20,217.01 "
     style="fill:none;stroke:#000000;stroke-width:1.25999999;stroke-linecap:butt;stroke-linejoin:round;stroke-miterlimit:10"
     clip-path="url(#cpMC4wMHw2NDguMDB8MjUyLjAwfDAuMDA=)"
     id="polyline536"
     transform="translate(-0.3378899,4.3928172)" />
  <polyline
     points="407.02,220.24 407.02,217.01 "
     style="fill:none;stroke:#000000;stroke-width:1.25999999;stroke-linecap:butt;stroke-linejoin:round;stroke-miterlimit:10"
     clip-path="url(#cpMC4wMHw2NDguMDB8MjUyLjAwfDAuMDA=)"
     id="polyline538"
     transform="translate(-0.3378899,4.3928172)" />
  <polyline
     points="458.85,220.24 458.85,217.01 "
     style="fill:none;stroke:#000000;stroke-width:1.25999999;stroke-linecap:butt;stroke-linejoin:round;stroke-miterlimit:10"
     clip-path="url(#cpMC4wMHw2NDguMDB8MjUyLjAwfDAuMDA=)"
     id="polyline540"
     transform="translate(-0.3378899,4.3928172)" />
  <polyline
     points="510.67,220.24 510.67,217.01 "
     style="fill:none;stroke:#000000;stroke-width:1.25999999;stroke-linecap:butt;stroke-linejoin:round;stroke-miterlimit:10"
     clip-path="url(#cpMC4wMHw2NDguMDB8MjUyLjAwfDAuMDA=)"
     id="polyline542"
     transform="translate(-0.3378899,4.3928172)" />
  <polyline
     points="562.49,220.24 562.49,217.01 "
     style="fill:none;stroke:#000000;stroke-width:1.25999999;stroke-linecap:butt;stroke-linejoin:round;stroke-miterlimit:10"
     clip-path="url(#cpMC4wMHw2NDguMDB8MjUyLjAwfDAuMDA=)"
     id="polyline544"
     transform="translate(-0.3378899,4.3928172)" />
  <polyline
     points="614.32,220.24 614.32,217.01 "
     style="fill:none;stroke:#000000;stroke-width:1.25999999;stroke-linecap:butt;stroke-linejoin:round;stroke-miterlimit:10"
     clip-path="url(#cpMC4wMHw2NDguMDB8MjUyLjAwfDAuMDA=)"
     id="polyline546"
     transform="translate(-0.3378899,4.3928172)" />
  <g
     clip-path="url(#cpMC4wMHw2NDguMDB8MjUyLjAwfDAuMDA=)"
     id="g550"
     transform="translate(-0.3378899,4.3928172)">
    <text
       x="30.35"
       y="229.99001"
       style="font-size:10px;font-family:Arial"
       textLength="27.809999"
       lengthAdjust="spacingAndGlyphs"
       id="text548">15500</text>
  </g>
  <g
     clip-path="url(#cpMC4wMHw2NDguMDB8MjUyLjAwfDAuMDA=)"
     id="g554"
     transform="translate(-0.3378899,4.3928172)">
    <text
       x="82.18"
       y="229.99001"
       style="font-size:10px;font-family:Arial"
       textLength="27.809999"
       lengthAdjust="spacingAndGlyphs"
       id="text552">15600</text>
  </g>
  <g
     clip-path="url(#cpMC4wMHw2NDguMDB8MjUyLjAwfDAuMDA=)"
     id="g558"
     transform="translate(-0.3378899,4.3928172)">
    <text
       x="134"
       y="229.99001"
       style="font-size:10px;font-family:Arial"
       textLength="27.809999"
       lengthAdjust="spacingAndGlyphs"
       id="text556">15700</text>
  </g>
  <g
     clip-path="url(#cpMC4wMHw2NDguMDB8MjUyLjAwfDAuMDA=)"
     id="g562"
     transform="translate(-0.3378899,4.3928172)">
    <text
       x="185.82001"
       y="229.99001"
       style="font-size:10px;font-family:Arial"
       textLength="27.809999"
       lengthAdjust="spacingAndGlyphs"
       id="text560">15800</text>
  </g>
  <g
     clip-path="url(#cpMC4wMHw2NDguMDB8MjUyLjAwfDAuMDA=)"
     id="g566"
     transform="translate(-0.3378899,4.3928172)">
    <text
       x="237.64999"
       y="229.99001"
       style="font-size:10px;font-family:Arial"
       textLength="27.809999"
       lengthAdjust="spacingAndGlyphs"
       id="text564">15900</text>
  </g>
  <g
     clip-path="url(#cpMC4wMHw2NDguMDB8MjUyLjAwfDAuMDA=)"
     id="g570"
     transform="translate(-0.3378899,4.3928172)">
    <text
       x="289.47"
       y="229.99001"
       style="font-size:10px;font-family:Arial"
       textLength="27.809999"
       lengthAdjust="spacingAndGlyphs"
       id="text568">16000</text>
  </g>
  <g
     clip-path="url(#cpMC4wMHw2NDguMDB8MjUyLjAwfDAuMDA=)"
     id="g574"
     transform="translate(-0.3378899,4.3928172)">
    <text
       x="341.29999"
       y="229.99001"
       style="font-size:10px;font-family:Arial"
       textLength="27.809999"
       lengthAdjust="spacingAndGlyphs"
       id="text572">16100</text>
  </g>
  <g
     clip-path="url(#cpMC4wMHw2NDguMDB8MjUyLjAwfDAuMDA=)"
     id="g578"
     transform="translate(-0.3378899,4.3928172)">
    <text
       x="393.12"
       y="229.99001"
       style="font-size:10px;font-family:Arial"
       textLength="27.809999"
       lengthAdjust="spacingAndGlyphs"
       id="text576">16200</text>
  </g>
  <g
     clip-path="url(#cpMC4wMHw2NDguMDB8MjUyLjAwfDAuMDA=)"
     id="g582"
     transform="translate(-0.3378899,4.3928172)">
    <text
       x="444.94"
       y="229.99001"
       style="font-size:10px;font-family:Arial"
       textLength="27.809999"
       lengthAdjust="spacingAndGlyphs"
       id="text580">16300</text>
  </g>
  <g
     clip-path="url(#cpMC4wMHw2NDguMDB8MjUyLjAwfDAuMDA=)"
     id="g586"
     transform="translate(-0.3378899,4.3928172)">
    <text
       x="496.76999"
       y="229.99001"
       style="font-size:10px;font-family:Arial"
       textLength="27.809999"
       lengthAdjust="spacingAndGlyphs"
       id="text584">16400</text>
  </g>
  <g
     clip-path="url(#cpMC4wMHw2NDguMDB8MjUyLjAwfDAuMDA=)"
     id="g590"
     transform="translate(-0.3378899,4.3928172)">
    <text
       x="548.59003"
       y="229.99001"
       style="font-size:10px;font-family:Arial"
       textLength="27.809999"
       lengthAdjust="spacingAndGlyphs"
       id="text588">16500</text>
  </g>
  <g
     clip-path="url(#cpMC4wMHw2NDguMDB8MjUyLjAwfDAuMDA=)"
     id="g594"
     transform="translate(-0.3378899,4.3928172)">
    <text
       x="600.40997"
       y="229.99001"
       style="font-size:10px;font-family:Arial"
       textLength="27.809999"
       lengthAdjust="spacingAndGlyphs"
       id="text592">16600</text>
  </g>
  <g
     clip-path="url(#cpMC4wMHw2NDguMDB8MjUyLjAwfDAuMDA=)"
     id="g598"
     transform="translate(-0.3378899,6.3928172)">
    <text
       x="294.25"
       y="243.21001"
       style="font-size:11px;font-family:Arial"
       textLength="95.989998"
       lengthAdjust="spacingAndGlyphs"
       id="text596">Position (Base pair)</text>
  </g>
  <g
     clip-path="url(#cpMC4wMHw2NDguMDB8MjUyLjAwfDAuMDA=)"
     id="g602"
     transform="translate(0.95575221,-47.787611)">
    <text
       transform="rotate(-90,73.9,59.55)"
       style="font-size:11px;font-family:Arial"
       textLength="43.41"
       lengthAdjust="spacingAndGlyphs"
       id="text600">Variation</text>
  </g>
  <text
     xml:space="preserve"
     style="font-style:normal;font-weight:normal;font-size:40px;line-height:1.25;font-family:sans-serif;letter-spacing:0px;word-spacing:0px;fill:#000000;fill-opacity:1;stroke:none"
     x="202.38031"
     y="160.45398"
     id="text612"><tspan
       sodipodi:role="line"
       id="tspan610"
       x="202.38031"
       y="160.45398"
       style="font-style:normal;font-variant:normal;font-weight:normal;font-stretch:normal;font-size:8px;font-family:sans-serif;-inkscape-font-specification:'sans-serif, Normal';font-variant-ligatures:normal;font-variant-caps:normal;font-variant-numeric:normal;font-feature-settings:normal;text-align:start;writing-mode:lr-tb;text-anchor:start">Three Kings and Kermadec Islands alignment</tspan></text>
  <text
     xml:space="preserve"
     style="font-style:normal;font-weight:normal;font-size:40px;line-height:1.25;font-family:sans-serif;letter-spacing:0px;word-spacing:0px;fill:#000000;fill-opacity:1;stroke:none"
     x="215.58542"
     y="147.77142"
     id="text612-5"><tspan
       sodipodi:role="line"
       id="tspan610-1"
       x="215.58542"
       y="147.77142"
       style="font-style:normal;font-variant:normal;font-weight:normal;font-stretch:normal;font-size:8px;font-family:sans-serif;-inkscape-font-specification:'sans-serif, Normal';font-variant-ligatures:normal;font-variant-caps:normal;font-variant-numeric:normal;font-feature-settings:normal;text-align:start;writing-mode:lr-tb;text-anchor:start">New Zealand and Western Australia alignment</tspan></text>
  <text
     xml:space="preserve"
     style="font-style:normal;font-variant:normal;font-weight:bold;font-stretch:normal;font-size:16px;line-height:1.25;font-family:Arial;-inkscape-font-specification:'Arial, Bold';font-variant-ligatures:normal;font-variant-caps:normal;font-variant-numeric:normal;font-feature-settings:normal;text-align:start;letter-spacing:0px;word-spacing:0px;writing-mode:lr-tb;text-anchor:start;fill:#000000;fill-opacity:1;stroke:none"
     x="-174.17349"
     y="92.364494"
     id="text89577"
     transform="rotate(-89.930104)"><tspan
       sodipodi:role="line"
       id="tspan89575"
       x="-174.17349"
       y="92.364494"
       style="font-style:normal;font-variant:normal;font-weight:normal;font-stretch:normal;font-size:8px;font-family:Arial;-inkscape-font-specification:'Arial, Normal';font-variant-ligatures:normal;font-variant-caps:normal;font-variant-numeric:normal;font-feature-settings:normal;text-align:start;writing-mode:lr-tb;text-anchor:start">tRNA-Thr</tspan></text>
  <text
     xml:space="preserve"
     style="font-style:normal;font-variant:normal;font-weight:bold;font-stretch:normal;font-size:16px;line-height:1.25;font-family:Arial;-inkscape-font-specification:'Arial, Bold';font-variant-ligatures:normal;font-variant-caps:normal;font-variant-numeric:normal;font-feature-settings:normal;text-align:start;letter-spacing:0px;word-spacing:0px;writing-mode:lr-tb;text-anchor:start;fill:#000000;fill-opacity:1;stroke:none"
     x="-207.05528"
     y="112.56821"
     id="text89577-8"
     transform="rotate(-89.930104)"><tspan
       sodipodi:role="line"
       id="tspan89597"
       style="font-style:italic;font-variant:normal;font-weight:normal;font-stretch:normal;font-size:8px;font-family:Arial;-inkscape-font-specification:'Arial, Italic';font-variant-ligatures:normal;font-variant-caps:normal;font-variant-numeric:normal;font-feature-settings:normal;text-align:start;writing-mode:lr-tb;text-anchor:start"
       x="-207.05528"
       y="112.56821">TRE_tRNA_Pro_F</tspan></text>
  <text
     xml:space="preserve"
     style="font-style:normal;font-variant:normal;font-weight:bold;font-stretch:normal;font-size:16px;line-height:1.25;font-family:Arial;-inkscape-font-specification:'Arial, Bold';font-variant-ligatures:normal;font-variant-caps:normal;font-variant-numeric:normal;font-feature-settings:normal;text-align:start;letter-spacing:0px;word-spacing:0px;writing-mode:lr-tb;text-anchor:start;fill:#000000;fill-opacity:1;stroke:none"
     x="-174.93289"
     y="129.76241"
     id="text89577-1"
     transform="rotate(-89.930104)"><tspan
       sodipodi:role="line"
       id="tspan89575-7"
       x="-174.93289"
       y="129.76241"
       style="font-style:normal;font-variant:normal;font-weight:normal;font-stretch:normal;font-size:8px;font-family:Arial;-inkscape-font-specification:'Arial, Normal';font-variant-ligatures:normal;font-variant-caps:normal;font-variant-numeric:normal;font-feature-settings:normal;text-align:start;writing-mode:lr-tb;text-anchor:start">tRNA-Pro</tspan></text>
  <text
     xml:space="preserve"
     style="font-style:normal;font-variant:normal;font-weight:bold;font-stretch:normal;font-size:16px;line-height:1.25;font-family:Arial;-inkscape-font-specification:'Arial, Bold';font-variant-ligatures:normal;font-variant-caps:normal;font-variant-numeric:normal;font-feature-settings:normal;text-align:start;letter-spacing:0px;word-spacing:0px;writing-mode:lr-tb;text-anchor:start;fill:#000000;fill-opacity:1;stroke:none"
     x="-214.2366"
     y="319.71561"
     id="text89577-7"
     transform="rotate(-89.930104)"><tspan
       sodipodi:role="line"
       id="tspan89575-8"
       x="-214.2366"
       y="319.71561"
       style="font-style:normal;font-variant:normal;font-weight:normal;font-stretch:normal;font-size:8px;font-family:Arial;-inkscape-font-specification:'Arial, Normal';font-variant-ligatures:normal;font-variant-caps:normal;font-variant-numeric:normal;font-feature-settings:normal;text-align:start;writing-mode:lr-tb;text-anchor:start">Control region</tspan></text>
  <text
     xml:space="preserve"
     style="font-style:normal;font-variant:normal;font-weight:bold;font-stretch:normal;font-size:16px;line-height:1.25;font-family:Arial;-inkscape-font-specification:'Arial, Bold';font-variant-ligatures:normal;font-variant-caps:normal;font-variant-numeric:normal;font-feature-settings:normal;text-align:start;letter-spacing:0px;word-spacing:0px;writing-mode:lr-tb;text-anchor:start;fill:#000000;fill-opacity:1;stroke:none"
     x="-214.70598"
     y="551.61169"
     id="text89577-8-4"
     transform="rotate(-89.930104)"><tspan
       sodipodi:role="line"
       id="tspan89597-8"
       style="font-style:italic;font-variant:normal;font-weight:normal;font-stretch:normal;font-size:8px;font-family:Arial;-inkscape-font-specification:'Arial, Italic';font-variant-ligatures:normal;font-variant-caps:normal;font-variant-numeric:normal;font-feature-settings:normal;text-align:start;writing-mode:lr-tb;text-anchor:start"
       x="-214.70598"
       y="551.61169">TRE_control_R_2</tspan></text>
</svg>
